<svg width="164" height="700" viewBox="0 0 164 700" fill="none" xmlns="http://www.w3.org/2000/svg">
<g clip-path="url(#clip0)">
<circle cx="57" cy="155" r="28" fill="#262626"/>
<path d="M154 345.478C154 360.942 141.464 373.478 126 373.478C110.536 373.478 98 360.942 98 345.478C98 330.014 110.536 317.478 126 317.478C141.464 317.478 154 330.014 154 345.478Z" fill="#446165"/>
<circle cx="44" cy="684" r="16" fill="#446165"/>
<circle cx="145" cy="31" r="70" fill="#446165"/>
<circle cx="181" cy="280" r="70" fill="#446165"/>
<circle cx="111" cy="615" r="70" fill="#446165"/>
<circle cx="145" cy="668" r="53" fill="#446165"/>
<circle cx="111" cy="512" r="53" fill="#446165"/>
<circle cx="145" cy="436" r="53" fill="#446165"/>
<circle cx="145" cy="204" r="53" fill="#446165"/>
<circle cx="164" cy="124" r="53" fill="#446165"/>
<path opacity="0.89" d="M49.5726 31.1575C54.3071 31.1575 58.1451 27.3167 58.1451 22.5787C58.1451 17.8408 54.3071 14 49.5726 14C44.8381 14 41 17.8408 41 22.5787C41 27.3167 44.8381 31.1575 49.5726 31.1575Z" fill="#191919"/>
<path opacity="0.89" d="M9.57255 651.157C14.3071 651.157 18.1451 647.317 18.1451 642.579C18.1451 637.841 14.3071 634 9.57255 634C4.83805 634 1 637.841 1 642.579C1 647.317 4.83805 651.157 9.57255 651.157Z" fill="black"/>
<path opacity="0.89" d="M21.3719 253.764C29.3092 253.764 35.7437 247.325 35.7437 239.382C35.7437 231.439 29.3092 225 21.3719 225C13.4345 225 7 231.439 7 239.382C7 247.325 13.4345 253.764 21.3719 253.764Z" fill="#446165"/>
<path opacity="0.89" d="M76.3508 279.731C87.5902 279.731 96.7015 270.613 96.7015 259.365C96.7015 248.118 87.5902 239 76.3508 239C65.1114 239 56 248.118 56 259.365C56 270.613 65.1114 279.731 76.3508 279.731Z" fill="#293C43"/>
<rect x="154" width="97" height="700" fill="#446165"/>
</g>
<defs>
<clipPath id="clip0">
<rect width="164" height="700" fill="white"/>
</clipPath>
</defs>
</svg>
