<svg width="663" height="442" viewBox="0 0 663 442" fill="none" xmlns="http://www.w3.org/2000/svg">
<g clip-path="url(#clip0)">
<path opacity="0.89" d="M397.11 69.9308C356.516 68.5207 317.852 55.4025 280.929 41.0541C244.005 26.7056 207.436 10.8065 167.806 3.20526C142.324 -1.68806 113.176 -2.37908 92.6404 11.2952C72.8791 24.4527 66.496 47.1665 63.0602 68.2454C60.4778 84.1052 58.962 100.791 66.0356 115.639C70.9479 125.943 79.672 134.606 85.6846 144.477C106.675 178.831 91.8601 221.186 69.0896 254.731C58.423 270.461 46.0385 285.473 37.8084 302.22C29.5783 318.968 25.7832 338.159 33.0197 355.272C40.1607 372.204 57.1599 384.924 75.6131 393.873C113.025 412.014 157.145 417.216 200.165 420.16C295.401 426.677 391.148 423.857 486.637 421.031C521.971 419.98 557.469 418.924 592.231 413.452C611.537 410.418 631.467 405.587 645.485 393.963C663.276 379.193 667.689 354.182 655.764 335.659C635.767 304.591 580.475 296.894 566.502 263.534C558.805 245.186 566.709 224.742 577.893 207.725C601.876 171.207 642.078 139.185 644.194 97.448C645.654 68.796 626.325 40.0765 596.441 26.5145C565.115 12.3009 521.685 14.0874 498.572 37.6214C474.775 61.8521 432.956 71.1724 397.11 69.9308Z" fill="#293C43"/>
<path opacity="0.89" d="M608.983 244.506C613.717 244.506 617.556 240.665 617.556 235.927C617.556 231.189 613.717 227.349 608.983 227.349C604.248 227.349 600.41 231.189 600.41 235.927C600.41 240.665 604.248 244.506 608.983 244.506Z" fill="#446165"/>
<path opacity="0.89" d="M639.652 212.051C647.59 212.051 654.024 205.611 654.024 197.668C654.024 189.725 647.59 183.286 639.652 183.286C631.715 183.286 625.28 189.725 625.28 197.668C625.28 205.611 631.715 212.051 639.652 212.051Z" fill="#262626"/>
<path opacity="0.89" d="M620.626 281.838C628.564 281.838 634.998 275.399 634.998 267.456C634.998 259.513 628.564 253.074 620.626 253.074C612.689 253.074 606.255 259.513 606.255 267.456C606.255 275.399 612.689 281.838 620.626 281.838Z" fill="#333333"/>
<path opacity="0.89" d="M49.3508 214.506C60.5902 214.506 69.7015 205.388 69.7015 194.14C69.7015 182.893 60.5902 173.775 49.3508 173.775C38.1114 173.775 29 182.893 29 194.14C29 205.388 38.1114 214.506 49.3508 214.506Z" fill="#577174"/>
</g>
<g clip-path="url(#clip1)">
<path d="M537.531 164.158H428.86V362.329H537.531V164.158Z" fill="#E6E6E6"/>
<path d="M439.01 352.182H527.38V174.305H439.01V352.182Z" fill="white"/>
<path d="M498.774 212.456H472.965V214.852H498.774V212.456Z" fill="#E6E6E6"/>
<path d="M517.947 220.744H472.965V223.14H517.947V220.744Z" fill="#E6E6E6"/>
<path d="M517.903 229.032H472.965V231.428H517.903V229.032Z" fill="#E6E6E6"/>
<path d="M467.617 212.492H448.444V231.659H467.617V212.492Z" fill="#E6E6E6"/>
<path d="M498.774 253.642H472.965V256.038H498.774V253.642Z" fill="#E6E6E6"/>
<path d="M517.947 261.931H472.965V264.327H517.947V261.931Z" fill="#E6E6E6"/>
<path d="M517.903 270.219H472.965V272.615H517.903V270.219Z" fill="#E6E6E6"/>
<path d="M467.617 253.678H448.444V272.845H467.617V253.678Z" fill="#E6E6E6"/>
<path d="M498.774 294.829H472.965V297.225H498.774V294.829Z" fill="#E6E6E6"/>
<path d="M517.947 303.117H472.965V305.513H517.947V303.117Z" fill="#E6E6E6"/>
<path d="M517.903 311.405H472.965V313.801H517.903V311.405Z" fill="#E6E6E6"/>
<path d="M467.617 294.864H448.444V314.032H467.617V294.864Z" fill="#E6E6E6"/>
<path d="M234.207 164.158H125.536V362.329H234.207V164.158Z" fill="#E6E6E6"/>
<path d="M135.686 352.182H224.056V174.305H135.686V352.182Z" fill="white"/>
<path d="M195.45 212.456H169.642V214.852H195.45V212.456Z" fill="#E6E6E6"/>
<path d="M214.623 220.744H169.642V223.14H214.623V220.744Z" fill="#E6E6E6"/>
<path d="M214.579 229.032H169.642V231.428H214.579V229.032Z" fill="#E6E6E6"/>
<path d="M164.293 212.492H145.12V231.659H164.293V212.492Z" fill="#E6E6E6"/>
<path d="M195.45 253.642H169.642V256.038H195.45V253.642Z" fill="#E6E6E6"/>
<path d="M214.623 261.931H169.642V264.327H214.623V261.931Z" fill="#E6E6E6"/>
<path d="M214.579 270.219H169.642V272.615H214.579V270.219Z" fill="#E6E6E6"/>
<path d="M164.293 253.678H145.12V272.845H164.293V253.678Z" fill="#E6E6E6"/>
<path d="M195.45 294.829H169.642V297.225H195.45V294.829Z" fill="#E6E6E6"/>
<path d="M214.623 303.117H169.642V305.513H214.623V303.117Z" fill="#E6E6E6"/>
<path d="M214.579 311.405H169.642V313.801H214.579V311.405Z" fill="#E6E6E6"/>
<path d="M164.293 294.864H145.12V314.032H164.293V294.864Z" fill="#E6E6E6"/>
<path d="M326.754 378.446C473.172 378.446 591.866 373.636 591.866 367.702C591.866 361.768 473.172 356.958 326.754 356.958C180.337 356.958 61.6427 361.768 61.6427 367.702C61.6427 373.636 180.337 378.446 326.754 378.446Z" fill="#E6E6E6"/>
<path d="M405.508 99.6926H257.558V369.492H405.508V99.6926Z" fill="#3F3D56"/>
<path d="M263.952 362.628H399.115V106.557H263.952V362.628Z" fill="white"/>
<path d="M352.743 165.448H317.606V168.71H352.743V165.448Z" fill="#494949"/>
<path d="M378.846 176.732H317.606V179.994H378.846V176.732Z" fill="#E6E6E6"/>
<path d="M378.786 188.016H317.606V191.278H378.786V188.016Z" fill="#E6E6E6"/>
<path d="M310.324 165.496H284.221V191.592H310.324V165.496Z" fill="#494949"/>
<path d="M352.743 221.521H317.606V224.783H352.743V221.521Z" fill="#494949"/>
<path d="M378.846 232.805H317.606V236.067H378.846V232.805Z" fill="#E6E6E6"/>
<path d="M378.786 244.089H317.606V247.351H378.786V244.089Z" fill="#E6E6E6"/>
<path d="M310.324 221.569H284.221V247.664H310.324V221.569Z" fill="#494949"/>
<path d="M352.743 277.594H317.606V280.855H352.743V277.594Z" fill="#494949"/>
<path d="M378.846 288.877H317.606V292.139H378.846V288.877Z" fill="#E6E6E6"/>
<path d="M378.786 300.161H317.606V303.423H378.786V300.161Z" fill="#E6E6E6"/>
<path d="M310.324 277.642H284.221V303.737H310.324V277.642Z" fill="#494949"/>
<path d="M277.496 291L275.705 298.759C275.705 298.759 276.302 316.666 271.525 314.876C266.749 313.085 267.943 297.566 267.943 297.566L272.123 289.806L277.496 291Z" fill="#FFB8B8"/>
<path d="M250.926 205.941C257.521 205.941 262.868 200.596 262.868 194.003C262.868 187.41 257.521 182.065 250.926 182.065C244.33 182.065 238.984 187.41 238.984 194.003C238.984 200.596 244.33 205.941 250.926 205.941Z" fill="#FFB8B8"/>
<path d="M241.671 197.286L240.477 214.596L255.404 216.387C255.404 216.387 255.404 202.061 256.598 200.271C257.792 198.48 241.671 197.286 241.671 197.286Z" fill="#FFB8B8"/>
<path d="M274.809 219.67L255.474 211.484C255.474 211.484 246.238 204.36 240.819 209.627L238.387 213.104C238.387 213.104 216.891 221.461 216.891 228.027L225.251 260.856C225.251 260.856 220.474 279.36 227.639 280.554L266.45 284.135C266.45 284.135 271.824 277.569 267.047 269.213L268.839 249.515L274.809 219.67Z" fill="#F2E6D8"/>
<path d="M261.673 220.267L274.809 219.67C274.809 219.67 278.989 220.864 281.975 232.205C284.96 243.546 285.557 262.05 285.557 262.05L278.392 295.477L269.436 294.283L273.018 262.05L267.047 240.562L261.673 220.267Z" fill="#F2E6D8"/>
<path d="M224.056 223.848L217.58 225.864C217.58 225.864 212.115 233.995 212.115 238.174C212.115 242.352 209.726 273.988 209.726 273.988L225.251 299.655L230.027 287.12L220.474 271.003L228.236 251.306L224.056 223.848Z" fill="#F2E6D8"/>
<path d="M268.241 282.942L225.312 279.166C225.312 279.166 221.071 306.221 221.668 316.965C222.265 327.709 222.862 344.423 222.862 344.423L218.086 417.245L236.595 414.857L238.984 354.57L246.746 321.74L255.702 363.523L261.673 417.245L277.795 415.454L272.421 350.392C272.421 350.392 277.198 291.895 268.241 282.942Z" fill="#2F2E41"/>
<path d="M274.212 412.469L279.586 414.26C279.586 414.26 290.931 411.275 287.946 419.035C284.96 426.795 276.601 425.601 276.601 425.601C276.601 425.601 266.45 433.361 262.27 427.392L264.659 414.857L274.212 412.469Z" fill="#2F2E41"/>
<path d="M230.625 412.469L235.998 414.26C235.998 414.26 247.343 411.275 244.358 419.035C241.372 426.795 233.013 425.601 233.013 425.601C233.013 425.601 222.862 433.361 218.683 427.392L221.071 414.857L230.625 412.469Z" fill="#2F2E41"/>
<path d="M241.671 204.449C241.671 204.449 229.132 195.495 235.7 184.751C240.256 177.297 249.698 177.887 255.054 178.948C256.497 179.214 257.853 179.827 259.007 180.734C260.16 181.641 261.075 182.815 261.673 184.154C262.569 186.243 262.569 188.333 258.986 188.333C251.821 188.333 255.404 193.705 255.404 193.705C255.404 193.705 250.627 194.899 251.821 199.077C253.016 203.255 241.671 204.449 241.671 204.449Z" fill="#2F2E41"/>
</g>
<path opacity="0.89" d="M28.5726 137.157C33.3071 137.157 37.1451 133.317 37.1451 128.579C37.1451 123.841 33.3071 120 28.5726 120C23.8381 120 20 123.841 20 128.579C20 133.317 23.8381 137.157 28.5726 137.157Z" fill="#191919"/>
<path opacity="0.89" d="M14.3719 173.764C22.3092 173.764 28.7437 167.325 28.7437 159.382C28.7437 151.439 22.3092 145 14.3719 145C6.43449 145 0 151.439 0 159.382C0 167.325 6.43449 173.764 14.3719 173.764Z" fill="#415158"/>
<defs>
<clipPath id="clip0">
<rect x="29" width="633.445" height="442" fill="white"/>
</clipPath>
<clipPath id="clip1">
<rect x="61.6427" y="99.6926" width="530.224" height="329.956" fill="white"/>
</clipPath>
</defs>
</svg>
